<svg width="62" height="34" viewBox="0 0 62 34" fill="none" xmlns="http://www.w3.org/2000/svg">
<path d="M15.8276 10.4753C16.3712 9.80899 16.74 8.91428 16.6428 8C15.8471 8.03878 14.8761 8.5145 14.3139 9.18137C13.8092 9.75244 13.3624 10.6846 13.4789 11.5606C14.3721 11.6365 15.2645 11.123 15.8276 10.4753Z" fill="black"/>
<path d="M16.6321 11.7314C15.335 11.6557 14.2321 12.4529 13.6126 12.4529C12.9928 12.4529 12.0442 11.7696 11.0182 11.788C9.68287 11.8072 8.44379 12.5472 7.76614 13.7242C6.37234 16.0787 7.39832 19.5712 8.75372 21.4888C9.41193 22.4375 10.2052 23.4821 11.2504 23.4446C12.238 23.4066 12.6251 22.8178 13.8255 22.8178C15.0251 22.8178 15.3738 23.4446 16.4192 23.4256C17.5033 23.4066 18.1811 22.4764 18.8393 21.5268C19.5944 20.4453 19.9035 19.4011 19.9229 19.3437C19.9035 19.3248 17.8324 18.5461 17.8132 16.2111C17.7937 14.2561 19.4392 13.3261 19.5167 13.2685C18.5874 11.9214 17.1355 11.7696 16.6321 11.7314Z" fill="black"/>
<path d="M27.9266 9.0857C30.7459 9.0857 32.7091 10.9904 32.7091 13.7636C32.7091 16.5466 30.7055 18.4612 27.8559 18.4612H24.7343V23.3266H22.479V9.08569L27.9266 9.0857ZM24.7343 16.6058H27.3221C29.2857 16.6058 30.4033 15.5697 30.4033 13.7735C30.4033 11.9774 29.2857 10.951 27.3322 10.951H24.7343V16.6058Z" fill="black"/>
<path d="M33.2988 20.3757C33.2988 18.5597 34.7186 17.4446 37.2361 17.3064L40.1359 17.1387V16.3394C40.1359 15.1847 39.3403 14.4939 38.0115 14.4939C36.7525 14.4939 35.9671 15.0859 35.776 16.0137H33.7218C33.8427 14.1385 35.4737 12.7568 38.0919 12.7568C40.6595 12.7568 42.3007 14.0892 42.3007 16.1715V23.3265H40.2163V21.6191H40.1662C39.552 22.7739 38.2127 23.5041 36.8232 23.5041C34.7489 23.5041 33.2988 22.2409 33.2988 20.3757ZM40.1359 19.4382V18.6191L37.5278 18.7769C36.2289 18.8658 35.4939 19.4283 35.4939 20.3165C35.4939 21.2243 36.2592 21.8165 37.4272 21.8165C38.9476 21.8165 40.1359 20.7901 40.1359 19.4382Z" fill="black"/>
<path d="M44.2677 27.1461V25.4189C44.4285 25.4583 44.791 25.4583 44.9724 25.4583C45.9792 25.4583 46.523 25.0439 46.8552 23.9781C46.8552 23.9583 47.0467 23.3465 47.0467 23.3366L43.2205 12.9446H45.5764L48.2551 21.3925H48.2951L50.9738 12.9446H53.2696L49.302 23.8694C48.3961 26.3861 47.3489 27.1954 45.1538 27.1954C44.9724 27.1954 44.4285 27.1756 44.2677 27.1461Z" fill="black"/>
</svg>
