<svg width="39" height="29" viewBox="0 0 39 29" fill="none" xmlns="http://www.w3.org/2000/svg">
<path d="M5.87148 16.1443H3.05176e-05V2.67029e-05H5.87148V16.1443Z" fill="#015EB7"/>
<path d="M18.5352 16.1443H12.6636V2.67029e-05H18.5352V16.1443Z" fill="#015EB7"/>
<path d="M10.7354 16.1443H7.79962V2.67029e-05H10.7354V16.1443Z" fill="#015EB7"/>
<path d="M26.3343 16.1443H20.4628V2.67029e-05H26.3343V16.1443Z" fill="#FDD602"/>
<path d="M38.9979 16.1443H33.1264V2.67029e-05H38.9979V16.1443Z" fill="#FDD602"/>
<path d="M31.1981 16.1443H28.2624V2.67029e-05H31.1981V16.1443Z" fill="#FDD602"/>
<path d="M0.686234 21.4684C0.697243 21.6701 0.752485 21.8409 0.851174 21.9807C0.950518 22.1209 1.10314 22.2291 1.31028 22.3054C1.51742 22.3821 1.7895 22.4203 2.12652 22.4203C2.61741 22.4203 2.96551 22.3617 3.17068 22.2439C3.37593 22.1264 3.47848 21.9688 3.47848 21.7708C3.47848 21.6326 3.44539 21.5237 3.37979 21.4431C3.31354 21.3631 3.19021 21.2996 3.00837 21.2528C2.82717 21.2061 2.56807 21.1828 2.23105 21.1828H1.44468V20.5948H2.23105C2.52783 20.5948 2.7564 20.5734 2.91813 20.5304C3.07914 20.4876 3.19021 20.425 3.25057 20.3428C3.31099 20.2609 3.3408 20.1542 3.3408 20.0236C3.3408 19.8223 3.24473 19.6617 3.05253 19.5422C2.86033 19.4228 2.54212 19.3629 2.09926 19.3629C1.78039 19.3629 1.52194 19.4004 1.32391 19.4748C1.12653 19.5495 0.9804 19.6568 0.886888 19.7969C0.793376 19.9368 0.737544 20.1095 0.719327 20.3148H0.0323071C0.0583226 19.8407 0.239448 19.4665 0.576471 19.1921C0.913493 18.9177 1.42325 18.7805 2.10444 18.7805C2.54081 18.7805 2.90122 18.8348 3.18694 18.9431C3.4733 19.0513 3.68307 19.1931 3.81681 19.3685C3.94997 19.5439 4.01681 19.738 4.01681 19.9509C4.01681 20.2161 3.93372 20.424 3.76681 20.5754C3.60056 20.7264 3.38693 20.8264 3.12652 20.8748V20.886C3.42003 20.9383 3.6655 21.04 3.86295 21.1913C4.06098 21.3423 4.16032 21.5635 4.16032 21.8547C4.16032 22.0676 4.09152 22.2601 3.95384 22.4315C3.81681 22.6032 3.5967 22.7414 3.29408 22.8461C2.99211 22.9503 2.60123 23.0027 2.12069 23.0027C1.41028 23.0027 0.884267 22.8674 0.543378 22.5967C0.203145 22.3262 0.0251643 21.9501 0.0102234 21.4684H0.686234Z" fill="black"/>
<path d="M7.49592 20.6848C7.78943 20.6848 8.00371 20.6309 8.13877 20.5226C8.27448 20.4143 8.3427 20.2594 8.3427 20.0577C8.3427 19.8563 8.27448 19.7013 8.13877 19.5931C8.00371 19.4849 7.78943 19.4306 7.49592 19.4306H5.96277V20.6848H7.49592ZM7.51282 18.8481C7.84591 18.8481 8.12448 18.8978 8.34788 18.9966C8.57127 19.0956 8.73883 19.2354 8.85115 19.4168C8.96281 19.5977 9.01871 19.8112 9.01871 20.0577C9.01871 20.3005 8.96281 20.5114 8.85115 20.6904C8.73883 20.8697 8.57127 21.0106 8.34788 21.1132C8.12448 21.2162 7.84591 21.2672 7.51282 21.2672H5.96277V22.936H5.30301V18.8481H7.51282Z" fill="black"/>
<path d="M11.8868 22.4035C12.3706 22.4035 12.7433 22.2775 13.0057 22.0254C13.2674 21.7738 13.3986 21.42 13.3986 20.9644V20.8189C13.3986 20.3595 13.2687 20.0052 13.0083 19.7548C12.7479 19.5047 12.3745 19.3797 11.8868 19.3797C11.3927 19.3797 11.0141 19.5057 10.7524 19.7578C10.4901 20.0098 10.3595 20.3635 10.3595 20.8189V20.9644C10.3595 21.42 10.4901 21.7738 10.7524 22.0254C11.0141 22.2775 11.3927 22.4035 11.8868 22.4035ZM11.8764 23.0027C11.418 23.0027 11.0245 22.9188 10.6946 22.7506C10.3647 22.5828 10.1135 22.3476 9.94137 22.0452C9.76929 21.7428 9.68292 21.3865 9.68292 20.9755V20.8077C9.68292 20.3971 9.76929 20.0404 9.94137 19.738C10.1135 19.4356 10.3647 19.2004 10.6946 19.0326C11.0245 18.8644 11.418 18.7805 11.8764 18.7805C12.3414 18.7805 12.7388 18.8644 13.0687 19.0326C13.3986 19.2004 13.6492 19.4356 13.8219 19.738C13.994 20.0404 14.0797 20.3971 14.0797 20.8077V20.9755C14.0797 21.3865 13.994 21.7428 13.8219 22.0452C13.6492 22.3476 13.3986 22.5828 13.0687 22.7506C12.7388 22.9188 12.3414 23.0027 11.8764 23.0027Z" fill="black"/>
<path d="M17.3336 22.3592C17.6343 22.3592 17.8512 22.306 17.985 22.1997C18.1187 22.0934 18.1856 21.943 18.1856 21.7489C18.1856 21.5548 18.1187 21.4054 17.985 21.3007C17.8512 21.1964 17.6343 21.1441 17.3336 21.1441H15.7836V22.3592H17.3336ZM17.3506 20.5785C17.8486 20.5785 18.2233 20.6848 18.4739 20.8977C18.7252 21.1106 18.8505 21.3962 18.8505 21.7545C18.8505 22.1167 18.7252 22.404 18.4739 22.6169C18.2233 22.8298 17.8486 22.936 17.3506 22.936H15.1297V18.8481H18.5376V19.4305H15.7836V20.5785H17.3506Z" fill="black"/>
<path d="M20.4516 18.8476H23.9192V22.9354H23.2543V19.4412H21.0893L21.012 21.2162C21.001 21.6496 20.9471 21.9957 20.8496 22.255C20.7529 22.5146 20.6224 22.7002 20.4594 22.8124C20.2964 22.9243 20.0977 22.9802 19.8633 22.9802C19.7977 22.9802 19.7354 22.9756 19.6763 22.9664C19.6178 22.9568 19.5685 22.9466 19.5282 22.9354V22.3307C19.5354 22.3307 19.5438 22.3317 19.5529 22.3333C19.562 22.3353 19.5704 22.3363 19.5776 22.3363C19.6581 22.3399 19.7224 22.3418 19.7698 22.3418C19.8983 22.3418 20.0029 22.3103 20.0834 22.2468C20.1639 22.1833 20.2282 22.0648 20.2757 21.8911C20.323 21.7173 20.3523 21.4719 20.3633 21.1547L20.4516 18.8476Z" fill="black"/>
<path d="M25.1604 22.936V18.8481H28.4748V19.4305H25.8202V20.5785H28.2436V21.1497H25.8202V22.3481H28.5793V22.936H25.1604Z" fill="black"/>
<path d="M32.8816 18.8481H33.5518V22.936H32.8816V21.1889H30.2323V22.936H29.5673V18.8481H30.2323V20.5953H32.8816V18.8481Z" fill="black"/>
<path d="M36.8043 22.4035C37.288 22.4035 37.6608 22.2775 37.9232 22.0254C38.1848 21.7738 38.316 21.42 38.316 20.9644V20.8189C38.316 20.3595 38.1861 20.0052 37.9257 19.7548C37.6654 19.5047 37.292 19.3797 36.8043 19.3797C36.3101 19.3797 35.9316 19.5057 35.6698 19.7578C35.4075 20.0098 35.277 20.3635 35.277 20.8189V20.9644C35.277 21.42 35.4075 21.7738 35.6698 22.0254C35.9316 22.2775 36.3101 22.4035 36.8043 22.4035ZM36.7939 23.0027C36.3354 23.0027 35.9419 22.9188 35.612 22.7506C35.2821 22.5828 35.0309 22.3476 34.8588 22.0452C34.6867 21.7428 34.6004 21.3865 34.6004 20.9755V20.8077C34.6004 20.3971 34.6867 20.0404 34.8588 19.738C35.0309 19.4356 35.2821 19.2004 35.612 19.0326C35.9419 18.8644 36.3354 18.7805 36.7939 18.7805C37.2589 18.7805 37.6562 18.8644 37.9861 19.0326C38.316 19.2004 38.5667 19.4356 38.7394 19.738C38.9115 20.0404 38.9972 20.3971 38.9972 20.8077V20.9755C38.9972 21.3865 38.9115 21.7428 38.7394 22.0452C38.5667 22.3476 38.316 22.5828 37.9861 22.7506C37.6562 22.9188 37.2589 23.0027 36.7939 23.0027Z" fill="black"/>
<path d="M4.96298 28.3617C5.29286 28.3617 5.52726 28.3103 5.66625 28.2076C5.80583 28.105 5.87536 27.955 5.87536 27.7569C5.87536 27.5703 5.80583 27.4236 5.66625 27.3173C5.52726 27.211 5.30714 27.1577 5.00714 27.1577H3.40191V28.3617H4.96298ZM4.96298 25.4162H3.40191V26.6201H5.00714C5.25976 26.6201 5.44869 26.5671 5.57339 26.4605C5.69744 26.3542 5.75976 26.2078 5.75976 26.0209C5.75976 25.8268 5.69678 25.6774 5.57011 25.5731C5.44417 25.4685 5.24155 25.4162 4.96298 25.4162ZM5.58375 26.8889C5.83702 26.9376 6.05976 27.0429 6.25196 27.2054C6.44416 27.3677 6.54029 27.5851 6.54029 27.8576C6.54029 28.0593 6.4857 28.2422 6.37535 28.4064C6.26559 28.5709 6.09416 28.6996 5.86172 28.793C5.62857 28.8862 5.33702 28.9329 4.98506 28.9329H2.74799V24.845H4.98506C5.29607 24.845 5.56101 24.8917 5.77922 24.9851C5.99744 25.0783 6.1591 25.2062 6.26559 25.3685C6.37207 25.531 6.4247 25.7149 6.4247 25.9202C6.4247 26.0956 6.3838 26.2506 6.3013 26.3848C6.21886 26.5194 6.11362 26.6276 5.98505 26.7099C5.85714 26.7918 5.72339 26.8478 5.58375 26.8777V26.8889Z" fill="black"/>
<path d="M12.6413 24.845H13.3887L11.6796 27.9083C11.5329 28.1768 11.3945 28.388 11.2646 28.541C11.1348 28.694 10.988 28.8088 10.8251 28.8852C10.662 28.9619 10.4614 29 10.2231 29C10.0542 29 9.8893 28.9777 9.72829 28.9329V28.3449C9.88609 28.3673 10.023 28.3785 10.1406 28.3785C10.2653 28.3785 10.3685 28.3627 10.451 28.3308C10.5335 28.2992 10.6069 28.2489 10.6711 28.1798C10.7348 28.1107 10.8036 28.0109 10.877 27.88L9.1568 24.845H9.94257L11.2945 27.3259L12.6413 24.845Z" fill="black"/>
<path d="M17.4613 28.9329L15.8561 26.8777L14.9275 27.7345V28.9329H14.2677V24.845H14.9275V26.9616L17.2301 24.845H18.1593L16.3781 26.4747L18.3022 28.9329H17.4613Z" fill="black"/>
<path d="M21.4003 26.6816C21.6938 26.6816 21.9081 26.6277 22.0432 26.5195C22.1789 26.4112 22.2471 26.2562 22.2471 26.0545C22.2471 25.8531 22.1789 25.6982 22.0432 25.5899C21.9081 25.4817 21.6938 25.4273 21.4003 25.4273H19.8672V26.6816H21.4003ZM21.4172 24.845C21.7503 24.845 22.0289 24.8947 22.2523 24.9934C22.4757 25.0924 22.6432 25.2323 22.7555 25.4135C22.8672 25.5945 22.923 25.8081 22.923 26.0545C22.923 26.2973 22.8672 26.5082 22.7555 26.6872C22.6432 26.8666 22.4757 27.0074 22.2523 27.1101C22.0289 27.2131 21.7503 27.264 21.4172 27.264H19.8672V28.9329H19.2074V24.845H21.4172Z" fill="black"/>
<path d="M25.2547 25.5843L24.5072 27.3482H26.0131L25.2547 25.5843ZM27.4151 28.9329H26.7001L26.2495 27.9082H24.2709L23.826 28.9329H23.1169L24.9306 24.845H25.5794L27.4151 28.9329Z" fill="black"/>
<path d="M29.6654 24.2879C29.5901 24.3606 29.4927 24.3971 29.3712 24.3971C29.2433 24.3971 29.1427 24.3606 29.0693 24.2879C28.9959 24.2152 28.9596 24.1192 28.9596 23.9994C28.9596 23.8839 28.9959 23.7904 29.0693 23.7194C29.1427 23.6486 29.2433 23.6131 29.3712 23.6131C29.4959 23.6131 29.5953 23.6486 29.668 23.7194C29.7413 23.7904 29.7784 23.8839 29.7784 23.9994C29.7784 24.1192 29.7407 24.2152 29.6654 24.2879ZM29.0913 24.845H28.4264V28.9329H29.0913V24.845ZM28.4537 24.2879C28.3803 24.3606 28.2816 24.3971 28.1569 24.3971C28.0322 24.3971 27.9336 24.3606 27.8602 24.2879C27.7868 24.2152 27.7504 24.1192 27.7504 23.9994C27.7504 23.8839 27.7868 23.7904 27.8602 23.7194C27.9336 23.6486 28.0322 23.6131 28.1569 23.6131C28.2816 23.6131 28.3803 23.6486 28.4537 23.7194C28.5271 23.7904 28.5634 23.8839 28.5634 23.9994C28.5634 24.1192 28.5271 24.2152 28.4537 24.2879Z" fill="black"/>
<path d="M33.6698 24.845H34.3399V28.9329H33.6698V27.1857H31.0204V28.9329H30.3554V24.845H31.0204V26.5921H33.6698V24.845Z" fill="black"/>
<path d="M36.2441 28.9329H35.5792V24.845H36.2441V28.9329Z" fill="black"/>
</svg>
