<svg width="16" height="16" viewBox="0 0 16 16" fill="none" xmlns="http://www.w3.org/2000/svg">
<g clip-path="url(#clip0_42_1328)">
<path d="M12.1562 15.7737L15.7812 12.1487C15.9218 12.0079 16.0008 11.8169 16.0006 11.6178C16.0004 11.4187 15.9212 11.2278 15.7803 11.0872C15.6394 10.9465 15.4484 10.8676 15.2493 10.8678C15.0502 10.868 14.8593 10.9472 14.7187 11.0881L12.3668 13.4406C12.3664 13.4411 12.3658 13.4413 12.3652 13.4415C12.3646 13.4416 12.364 13.4415 12.3634 13.4413C12.3629 13.441 12.3624 13.4407 12.3621 13.4401C12.3617 13.4396 12.3615 13.439 12.3615 13.4384V0.75C12.3615 0.551088 12.2825 0.360322 12.1418 0.21967C12.0012 0.0790176 11.8104 0 11.6115 0C11.4126 0 11.2218 0.0790176 11.0812 0.21967C10.9405 0.360322 10.8615 0.551088 10.8615 0.75V13.4375C10.8615 13.4381 10.8613 13.4387 10.861 13.4392C10.8606 13.4397 10.8601 13.4401 10.8596 13.4403C10.859 13.4406 10.8584 13.4406 10.8578 13.4405C10.8572 13.4404 10.8566 13.4401 10.8562 13.4397L8.52089 11.1044C8.20839 10.7919 7.69745 10.7947 7.40745 11.1306C7.28395 11.274 7.21921 11.4588 7.22622 11.6479C7.23324 11.837 7.31148 12.0165 7.44526 12.1503L11.0662 15.7737C11.1378 15.8453 11.2227 15.9021 11.3162 15.9409C11.4098 15.9796 11.51 15.9995 11.6112 15.9995C11.7124 15.9995 11.8127 15.9796 11.9062 15.9409C11.9997 15.9021 12.0846 15.8453 12.1562 15.7737Z" fill="#43A0FD"/>
<path d="M5.13574 15.2498V2.56231C5.13575 2.5617 5.13594 2.5611 5.13628 2.5606C5.13663 2.56009 5.13711 2.5597 5.13768 2.55947C5.13824 2.55923 5.13887 2.55917 5.13947 2.55929C5.14007 2.55941 5.14062 2.5597 5.14106 2.56012L7.49387 4.91294C7.63452 5.05363 7.82529 5.13268 8.02423 5.13271C8.22316 5.13274 8.41396 5.05374 8.55465 4.91309C8.69534 4.77245 8.77439 4.58167 8.77442 4.38273C8.77445 4.1838 8.69545 3.993 8.55481 3.85231L4.92981 0.227311C4.85824 0.155679 4.77325 0.0988543 4.67971 0.0600839C4.58617 0.0213135 4.48591 0.00135803 4.38465 0.00135803C4.28339 0.00135803 4.18313 0.0213135 4.08959 0.0600839C3.99605 0.0988543 3.91106 0.155679 3.83949 0.227311L0.218869 3.84856C0.0850401 3.98236 0.00674031 4.16181 -0.000330356 4.35092C-0.00740102 4.54003 0.0572802 4.72483 0.180744 4.86825C0.470744 5.20419 0.980744 5.20794 1.29449 4.8945L3.63043 2.55919C3.63087 2.55876 3.63142 2.55847 3.63202 2.55835C3.63262 2.55823 3.63324 2.5583 3.63381 2.55853C3.63437 2.55876 3.63486 2.55915 3.6352 2.55966C3.63555 2.56017 3.63574 2.56076 3.63574 2.56137V15.2498C3.63574 15.4487 3.71476 15.6395 3.85541 15.7801C3.99607 15.9208 4.18683 15.9998 4.38574 15.9998C4.58466 15.9998 4.77542 15.9208 4.91607 15.7801C5.05673 15.6395 5.13574 15.4487 5.13574 15.2498Z" fill="black"/>
</g>
<defs>
<clipPath id="clip0_42_1328">
<rect width="16" height="16" fill="white"/>
</clipPath>
</defs>
</svg>
