<svg width="187" height="50" viewBox="0 0 187 50" fill="none" xmlns="http://www.w3.org/2000/svg">
<path d="M68.1348 39.5007L65.2541 42.4343C63.6631 44.0545 63.6631 46.6813 65.2541 48.3015C66.8451 49.9217 69.4246 49.9217 71.0155 48.3015C72.6065 46.6813 72.6065 44.0545 71.0155 42.4343L68.1348 39.5007Z" fill="#43A0FD"/>
<path d="M30.8151 38.9895L27.8019 33.0032H10.9681L7.95488 38.9895H0L14.5036 10.8661H24.2664L38.8102 38.9895H30.8151ZM13.6599 27.6196H25.1101L19.4051 16.2096L13.6599 27.6196Z" fill="#182A42"/>
<path d="M30.8151 38.9895L27.8019 33.0032H10.9681L7.95488 38.9895H0L14.5036 10.8661H24.2664L38.8102 38.9895H30.8151ZM13.6599 27.6196H25.1101L19.4051 16.2096L13.6599 27.6196Z" fill="url(#paint0_linear_43_3116)"/>
<path d="M104.237 10.8661H112.353L97.8896 38.9895H88.0062L73.5428 10.8661H81.6584L92.9479 33.646L104.237 10.8661Z" fill="#182A42"/>
<path d="M104.237 10.8661H112.353L97.8896 38.9895H88.0062L73.5428 10.8661H81.6584L92.9479 33.646L104.237 10.8661Z" fill="url(#paint1_linear_43_3116)"/>
<path d="M143.812 16.6113H121.313V22.3163H143.812V27.5392H121.313V33.2443H143.812V38.9895H114.082V10.8661H143.812V16.6113Z" fill="#182A42"/>
<path d="M143.812 16.6113H121.313V22.3163H143.812V27.5392H121.313V33.2443H143.812V38.9895H114.082V10.8661H143.812V16.6113Z" fill="url(#paint2_linear_43_3116)"/>
<path d="M145.538 38.9895L161.368 24.9278L145.538 10.8661H155.502L166.269 20.5084L176.996 10.8661H187L171.171 24.9278L187 38.9895H176.996L166.269 29.3472L155.502 38.9895H145.538Z" fill="#182A42"/>
<path d="M145.538 38.9895L161.368 24.9278L145.538 10.8661H155.502L166.269 20.5084L176.996 10.8661H187L171.171 24.9278L187 38.9895H176.996L166.269 29.3472L155.502 38.9895H145.538Z" fill="url(#paint3_linear_43_3116)"/>
<path fill-rule="evenodd" clip-rule="evenodd" d="M39.1947 24.9244C38.9965 16.2234 46.5267 8.81827 56.2366 9.00339C66.1447 9.00339 73.2785 16.0383 72.8822 24.9244C72.8822 29.6172 70.8948 33.9385 67.3533 36.8764C65.0234 34.1676 64.3633 31.069 65.0468 27.4789C65.2532 26.6858 65.3521 25.8398 65.3521 24.9244C65.3521 22.3326 64.5594 20.2962 62.7759 18.4449C60.9925 16.7788 58.8127 15.8531 56.2366 15.8531C53.6605 15.8531 51.4807 16.5937 49.6972 18.4449C47.9138 20.2962 47.1211 22.3326 47.1211 24.9244C47.1211 27.5162 47.9138 29.5527 49.6972 31.4039C51.4807 33.0701 53.4623 33.9957 56.2366 33.9957L56.3032 33.996C56.3471 33.9962 56.3909 33.9964 56.4348 33.9957C60.1998 33.9957 62.3796 35.1065 64.1631 36.5875C64.4232 36.7766 64.6665 36.9735 64.8985 37.1754C65.2125 37.4487 65.5057 37.7313 65.792 38.0158C65.4577 38.2296 65.1128 38.4325 64.7576 38.624C62.9251 39.6774 60.8921 40.3563 58.7299 40.6604C57.8525 40.7838 56.9537 40.8455 56.0384 40.8455C52.8678 40.8455 49.8954 40.105 47.3193 38.624C42.1671 35.847 39.1947 30.6634 39.1947 24.9244Z" fill="#182A42"/>
<path fill-rule="evenodd" clip-rule="evenodd" d="M39.1947 24.9244C38.9965 16.2234 46.5267 8.81827 56.2366 9.00339C66.1447 9.00339 73.2785 16.0383 72.8822 24.9244C72.8822 29.6172 70.8948 33.9385 67.3533 36.8764C65.0234 34.1676 64.3633 31.069 65.0468 27.4789C65.2532 26.6858 65.3521 25.8398 65.3521 24.9244C65.3521 22.3326 64.5594 20.2962 62.7759 18.4449C60.9925 16.7788 58.8127 15.8531 56.2366 15.8531C53.6605 15.8531 51.4807 16.5937 49.6972 18.4449C47.9138 20.2962 47.1211 22.3326 47.1211 24.9244C47.1211 27.5162 47.9138 29.5527 49.6972 31.4039C51.4807 33.0701 53.4623 33.9957 56.2366 33.9957L56.3032 33.996C56.3471 33.9962 56.3909 33.9964 56.4348 33.9957C60.1998 33.9957 62.3796 35.1065 64.1631 36.5875C64.4232 36.7766 64.6665 36.9735 64.8985 37.1754C65.2125 37.4487 65.5057 37.7313 65.792 38.0158C65.4577 38.2296 65.1128 38.4325 64.7576 38.624C62.9251 39.6774 60.8921 40.3563 58.7299 40.6604C57.8525 40.7838 56.9537 40.8455 56.0384 40.8455C52.8678 40.8455 49.8954 40.105 47.3193 38.624C42.1671 35.847 39.1947 30.6634 39.1947 24.9244Z" fill="url(#paint4_linear_43_3116)"/>
<defs>
<linearGradient id="paint0_linear_43_3116" x1="0" y1="24.9227" x2="187" y2="24.9227" gradientUnits="userSpaceOnUse">
<stop stop-color="#3360A4"/>
<stop offset="1" stop-color="#01141D"/>
</linearGradient>
<linearGradient id="paint1_linear_43_3116" x1="0" y1="24.9227" x2="187" y2="24.9227" gradientUnits="userSpaceOnUse">
<stop stop-color="#3360A4"/>
<stop offset="1" stop-color="#01141D"/>
</linearGradient>
<linearGradient id="paint2_linear_43_3116" x1="0" y1="24.9227" x2="187" y2="24.9227" gradientUnits="userSpaceOnUse">
<stop stop-color="#3360A4"/>
<stop offset="1" stop-color="#01141D"/>
</linearGradient>
<linearGradient id="paint3_linear_43_3116" x1="0" y1="24.9227" x2="187" y2="24.9227" gradientUnits="userSpaceOnUse">
<stop stop-color="#3360A4"/>
<stop offset="1" stop-color="#01141D"/>
</linearGradient>
<linearGradient id="paint4_linear_43_3116" x1="0" y1="24.9227" x2="187" y2="24.9227" gradientUnits="userSpaceOnUse">
<stop stop-color="#3360A4"/>
<stop offset="1" stop-color="#01141D"/>
</linearGradient>
</defs>
</svg>
