<svg width="77" height="34" viewBox="0 0 77 34" fill="none" xmlns="http://www.w3.org/2000/svg">
<path d="M11.6259 20.5092C11.2934 20.2977 10.9355 20.1294 10.5607 20.0084C10.1854 19.8886 9.79374 19.8284 9.39987 19.8298C9.15538 19.8276 8.91155 19.8554 8.67381 19.9126C8.47311 19.9594 8.28193 20.0404 8.10861 20.1521C7.96033 20.2479 7.8355 20.3759 7.74341 20.5266C7.6556 20.6755 7.61047 20.8458 7.61298 21.0187C7.60658 21.1719 7.64594 21.3236 7.72602 21.4542C7.80924 21.5779 7.92112 21.6795 8.05209 21.7504C8.21497 21.8397 8.38894 21.9071 8.56947 21.9507C8.79732 22.008 9.02808 22.0531 9.26074 22.0857L9.80855 22.1597C10.1266 22.2043 10.4407 22.2742 10.7476 22.3688C11.0394 22.4565 11.3153 22.5903 11.565 22.7651C11.8029 22.9328 12.0004 23.1515 12.1432 23.4053C12.2956 23.6932 12.3705 24.0159 12.3606 24.3416C12.3682 24.7148 12.2799 25.0837 12.1041 25.4129C11.935 25.7226 11.6988 25.9905 11.4128 26.1968C11.1063 26.4166 10.7634 26.5803 10.3998 26.6802C10.0023 26.7922 9.59109 26.8479 9.17814 26.8457C8.8985 26.8443 8.6194 26.821 8.34339 26.776C8.04887 26.7315 7.75818 26.6645 7.47386 26.5757C7.20425 26.4856 6.9425 26.3735 6.69128 26.2403C6.44304 26.1133 6.21095 25.9569 6 25.7744L6.69128 24.7509C6.84075 24.8861 7.00565 25.003 7.18256 25.0993C7.58967 25.3226 8.03011 25.4785 8.48686 25.561C8.71771 25.6041 8.95201 25.6259 9.18683 25.6263C9.42944 25.6294 9.6716 25.6046 9.90854 25.5523C10.1152 25.5071 10.3134 25.4292 10.4955 25.3215C10.6529 25.2287 10.788 25.1023 10.8911 24.9513C10.9904 24.8034 11.042 24.6286 11.0389 24.4505C11.0451 24.149 10.8752 23.8717 10.6042 23.7406C10.1765 23.5411 9.71755 23.4174 9.2477 23.3748L8.63033 23.2877C8.33479 23.2466 8.04369 23.1781 7.7608 23.083C7.48912 22.9934 7.23473 22.8579 7.00866 22.6823C6.78501 22.508 6.60244 22.2864 6.4739 22.0334C6.3271 21.7419 6.25254 21.4193 6.25651 21.0928C6.24997 20.7249 6.33515 20.3611 6.50433 20.0345C6.6674 19.7271 6.89777 19.4606 7.17822 19.255C7.47864 19.0366 7.8159 18.8744 8.17383 18.7759C8.56975 18.6633 8.97962 18.6076 9.39117 18.6104C9.92325 18.6035 10.453 18.6814 10.9607 18.8413C11.4215 18.9909 11.8602 19.2018 12.265 19.4684L11.6259 20.5092ZM15.9517 21.1189C16.3088 21.1156 16.6627 21.1868 16.9908 21.3279C17.2993 21.4617 17.5752 21.6607 17.7995 21.9115C18.031 22.1754 18.2096 22.4814 18.3256 22.813C18.4566 23.1864 18.5213 23.58 18.5169 23.9758V24.2022V24.42H14.4822C14.5113 24.6418 14.5821 24.8561 14.6909 25.0514C14.7848 25.2192 14.9103 25.3671 15.0605 25.4869C15.2043 25.5993 15.3681 25.6835 15.5431 25.7352C15.7238 25.7884 15.9112 25.8148 16.0996 25.8136C16.3789 25.8114 16.6556 25.7598 16.9169 25.6611C17.1899 25.5584 17.444 25.4113 17.6691 25.2256L18.256 26.0749C17.9489 26.3448 17.5891 26.548 17.1995 26.6715C16.8174 26.7865 16.4203 26.8437 16.0213 26.8413C15.6378 26.8455 15.257 26.776 14.8996 26.6367C14.573 26.5058 14.2769 26.3086 14.0301 26.0574C13.7788 25.7998 13.5834 25.4929 13.4562 25.156C13.3158 24.7801 13.2465 24.3814 13.2519 23.9801C13.2477 23.5836 13.3154 23.1896 13.4518 22.8173C13.5746 22.481 13.7639 22.1729 14.0083 21.9115C14.2533 21.6571 14.5498 21.4581 14.8779 21.3279C15.2185 21.1874 15.5833 21.1149 15.9517 21.1145V21.1189ZM15.93 22.1772C15.7373 22.1735 15.5456 22.206 15.3648 22.273C15.2022 22.3326 15.054 22.4261 14.93 22.5473C14.8074 22.6736 14.7087 22.8212 14.6388 22.9828C14.5602 23.1544 14.5061 23.3362 14.4779 23.5228H17.2952C17.2615 23.1547 17.1089 22.8076 16.8604 22.5343C16.612 22.2896 16.2737 22.1588 15.9257 22.1728L15.93 22.1772ZM22.2298 21.1189C22.6201 21.1152 23.0073 21.1892 23.3688 21.3367C23.7063 21.4803 24.0044 21.7028 24.2384 21.9855L23.4775 22.7956C23.3026 22.6186 23.0999 22.4715 22.8776 22.3601C22.6562 22.261 22.4157 22.2119 22.1732 22.2164C21.9552 22.2141 21.7391 22.2571 21.5385 22.3427C21.3472 22.4326 21.1769 22.5617 21.0385 22.7215C20.8905 22.8803 20.7753 23.0668 20.6994 23.2703C20.5365 23.7279 20.5365 24.2279 20.6994 24.6856C20.7748 24.8907 20.89 25.0786 21.0385 25.2387C21.1817 25.3916 21.3548 25.5132 21.5472 25.5958C21.7478 25.6814 21.9639 25.7244 22.1819 25.7221C22.438 25.7226 22.6908 25.6645 22.921 25.5523C23.1408 25.4493 23.3432 25.3127 23.521 25.1473L24.2558 25.9878C24.0117 26.2709 23.705 26.4931 23.3602 26.6367C23.0003 26.7846 22.6144 26.8587 22.2254 26.8544C21.8236 26.8602 21.4246 26.7862 21.0515 26.6367C20.3664 26.3622 19.8293 25.81 19.5733 25.1168C19.3008 24.3836 19.3008 23.5767 19.5733 22.8435C19.8294 22.1578 20.3609 21.6111 21.0385 21.3367C21.4154 21.184 21.8189 21.1084 22.2254 21.1145L22.2298 21.1189ZM30.3381 24.3938C30.3482 24.7769 30.274 25.1576 30.1208 25.5087C29.9906 25.8013 29.7976 26.0615 29.5556 26.2708C29.3197 26.4691 29.046 26.6172 28.7512 26.7063C28.1449 26.8923 27.4968 26.8923 26.8904 26.7063C26.5944 26.6171 26.3194 26.469 26.0818 26.2708C25.8382 26.0629 25.6449 25.8023 25.5166 25.5087C25.3662 25.1568 25.2935 24.7765 25.3036 24.3938V21.2583H26.4948V24.3067C26.4888 24.533 26.5226 24.7586 26.5948 24.9731C26.655 25.1377 26.7516 25.2866 26.8774 25.4086C27.0007 25.5246 27.1497 25.6096 27.3122 25.6568C27.6525 25.759 28.0153 25.759 28.3556 25.6568C28.5181 25.6096 28.6671 25.5246 28.7904 25.4086C28.9162 25.2866 29.0128 25.1377 29.073 24.9731C29.1467 24.7589 29.182 24.5333 29.1773 24.3067V21.2583H30.3686L30.3381 24.3938ZM34.6641 21.1189C34.8286 21.1182 34.993 21.1313 35.1553 21.1581C35.304 21.1819 35.4497 21.2213 35.5901 21.2757L35.3075 22.4515C35.17 22.3825 35.0237 22.3327 34.8727 22.3035C34.7198 22.2704 34.564 22.2528 34.4075 22.2512C34.2291 22.249 34.0519 22.2815 33.8858 22.347C33.7299 22.409 33.5901 22.5058 33.4771 22.6301C33.3586 22.7645 33.2684 22.9215 33.2119 23.0917C33.1452 23.2909 33.1128 23.5 33.1163 23.7101V26.702H31.9076V21.2583H33.0815V21.8723C33.2489 21.6221 33.4821 21.4232 33.7554 21.2975C34.0403 21.1724 34.3487 21.11 34.6597 21.1145L34.6641 21.1189ZM38.6422 21.1189C38.9993 21.1156 39.3531 21.1868 39.6813 21.3279C39.9897 21.4617 40.2656 21.6607 40.4899 21.9115C40.7291 22.1736 40.9152 22.4798 41.0377 22.813C41.1686 23.1865 41.2334 23.58 41.229 23.9758V24.2022V24.42H37.1683C37.1974 24.6418 37.2682 24.8561 37.377 25.0514C37.4709 25.2192 37.5964 25.3671 37.7465 25.4869C37.8904 25.5993 38.0541 25.6835 38.2291 25.7352C38.4098 25.7884 38.5973 25.8148 38.7856 25.8136C39.0649 25.8114 39.3416 25.7598 39.603 25.6611C39.8759 25.5584 40.1301 25.4113 40.3551 25.2256L40.9464 26.0705C40.6394 26.3406 40.2796 26.5438 39.8899 26.6671C39.5078 26.7821 39.1107 26.8394 38.7117 26.837C38.3282 26.8411 37.9475 26.7716 37.59 26.6323C37.2634 26.5014 36.9673 26.3042 36.7205 26.0531C36.4692 25.7954 36.2738 25.4885 36.1466 25.1516C36.0062 24.7758 35.9369 24.377 35.9423 23.9758C35.9381 23.5792 36.0059 23.1853 36.1423 22.813C36.2624 22.4773 36.4487 22.1693 36.6901 21.9072C36.935 21.6527 37.2315 21.4538 37.5596 21.3236C37.9019 21.184 38.2682 21.1129 38.6378 21.1145L38.6422 21.1189ZM38.6204 22.1772C38.4277 22.1735 38.236 22.206 38.0552 22.273C37.8926 22.3326 37.7444 22.4261 37.6205 22.5473C37.4978 22.6736 37.3991 22.8212 37.3292 22.9828C37.2507 23.1544 37.1965 23.3362 37.1683 23.5228H39.9943C39.9606 23.1547 39.808 22.8076 39.5595 22.5343C39.3091 22.2873 38.9671 22.1563 38.6161 22.1728L38.6204 22.1772ZM46.3201 18.5843C46.6639 18.5831 47.0066 18.6211 47.3418 18.6975C47.66 18.7699 47.968 18.8811 48.2592 19.0285C48.5376 19.1697 48.7963 19.3469 49.0287 19.5555C49.2554 19.7573 49.4503 19.9922 49.607 20.2523L48.5374 20.9665C48.2988 20.6142 47.978 20.3257 47.6027 20.126C47.2008 19.915 46.7519 19.8101 46.2984 19.8211C45.9145 19.8171 45.5335 19.8881 45.1767 20.0302C44.8497 20.1664 44.5539 20.3679 44.3072 20.6224C44.0522 20.8847 43.8526 21.1958 43.7202 21.537C43.4364 22.2951 43.4364 23.1305 43.7202 23.8887C43.8526 24.2299 44.0522 24.5409 44.3072 24.8032C44.5539 25.0577 44.8497 25.2592 45.1767 25.3955C45.5335 25.5376 45.9145 25.6086 46.2984 25.6045C47.1813 25.6239 48.0141 25.1946 48.5113 24.4635L49.5548 25.23C49.3851 25.479 49.1833 25.7045 48.9548 25.9007C48.7305 26.1043 48.4823 26.2797 48.2157 26.4233C47.9311 26.5663 47.6304 26.6745 47.3201 26.7455C46.4271 26.9434 45.4957 26.8737 44.6419 26.5452C43.6459 26.1548 42.8578 25.3655 42.4681 24.3677C42.0604 23.3082 42.0604 22.1348 42.4681 21.0754C42.8578 20.0776 43.6459 19.2882 44.6419 18.8979C45.1758 18.6856 45.7457 18.5791 46.3201 18.5843ZM53.3198 21.1015C53.7187 21.0969 54.1146 21.1709 54.485 21.3192C54.8299 21.4571 55.1445 21.6612 55.4111 21.9202C55.6737 22.1782 55.8821 22.4862 56.0241 22.8261C56.319 23.555 56.319 24.3704 56.0241 25.0993C55.8821 25.4392 55.6737 25.7472 55.4111 26.0052C55.1445 26.2642 54.8299 26.4683 54.485 26.6062C53.7355 26.8979 52.9042 26.8979 52.1547 26.6062C51.8094 26.4691 51.4946 26.2649 51.2286 26.0052C50.9636 25.7532 50.7508 25.4513 50.6026 25.1168C50.3077 24.3878 50.3077 23.5725 50.6026 22.8435C50.7436 22.5042 50.9505 22.1963 51.2112 21.9376C51.4772 21.6779 51.792 21.4737 52.1373 21.3367C52.5141 21.184 52.9177 21.1084 53.3242 21.1145L53.3198 21.1015ZM53.3198 22.2207C53.0891 22.2183 52.8602 22.2612 52.646 22.347C52.4438 22.4278 52.2603 22.5494 52.1069 22.7041C51.9531 22.8617 51.8319 23.0482 51.7503 23.2528C51.5764 23.7085 51.5764 24.2125 51.7503 24.6682C51.8319 24.8729 51.9531 25.0593 52.1069 25.2169C52.2604 25.3715 52.4439 25.493 52.646 25.574C53.0792 25.744 53.5605 25.744 53.9937 25.574C54.4043 25.4128 54.7311 25.0902 54.898 24.6813C55.072 24.2256 55.072 23.7216 54.898 23.2659C54.8158 23.0606 54.6931 22.8739 54.5372 22.7172C54.3819 22.5627 54.197 22.4413 53.9937 22.3601C53.7809 22.2748 53.5534 22.2319 53.3242 22.2338L53.3198 22.2207ZM59.8109 21.1015C60.4764 21.0757 61.1131 21.3743 61.5195 21.9028V18.5059H62.7064V26.6976H61.5195V26.0444C61.33 26.2869 61.0896 26.4846 60.8152 26.6236C60.5026 26.7755 60.1582 26.8502 59.8109 26.8413C59.0858 26.8483 58.3897 26.5571 57.8849 26.0357C57.6328 25.7711 57.4362 25.4587 57.3067 25.1168C57.0272 24.3758 57.0272 23.5583 57.3067 22.8173C57.4379 22.4802 57.6344 22.1723 57.8849 21.9115C58.3897 21.3901 59.0858 21.0989 59.8109 21.1058V21.1015ZM59.9544 22.2207C59.718 22.217 59.4837 22.2645 59.2674 22.3601C59.0723 22.4478 58.8976 22.5754 58.7544 22.7346C58.6124 22.8963 58.5031 23.0841 58.4327 23.2877C58.2816 23.725 58.2816 24.2004 58.4327 24.6377C58.5031 24.8413 58.6124 25.0291 58.7544 25.1908C58.8976 25.35 59.0723 25.4776 59.2674 25.5653C59.7015 25.7463 60.1898 25.7463 60.6239 25.5653C60.8198 25.4805 60.9959 25.356 61.1413 25.1995C61.2829 25.049 61.3949 24.8732 61.4717 24.6813C61.6306 24.2334 61.6306 23.7443 61.4717 23.2964C61.397 23.0933 61.2833 22.9069 61.1369 22.7477C60.9913 22.5915 60.8152 22.467 60.6196 22.3818C60.4106 22.2865 60.184 22.236 59.9544 22.2338V22.2207ZM66.6498 21.1015C67.0069 21.0981 67.3608 21.1693 67.6889 21.3105C67.9974 21.4441 68.2733 21.6432 68.4975 21.8941C68.729 22.1579 68.9077 22.464 69.0236 22.7956C69.1547 23.169 69.2194 23.5625 69.2149 23.9583V24.1848V24.4026H65.202C65.2304 24.6245 65.3013 24.8389 65.4107 25.034C65.5045 25.2019 65.63 25.3498 65.7802 25.4695C65.924 25.582 66.0878 25.6662 66.2628 25.7178C66.4435 25.7709 66.631 25.7973 66.8193 25.7961C67.0986 25.794 67.3753 25.7424 67.6367 25.6437C67.9096 25.541 68.1637 25.3938 68.3888 25.2082L68.9801 26.0531C68.6729 26.323 68.3132 26.5261 67.9236 26.6497C67.5415 26.7648 67.1444 26.822 66.7454 26.8196C66.3619 26.8237 65.9811 26.7542 65.6237 26.6149C65.2971 26.484 65.001 26.2868 64.7542 26.0357C64.5029 25.778 64.3075 25.4711 64.1803 25.1342C64.0399 24.7583 63.9706 24.3596 63.976 23.9583C63.9718 23.5618 64.0396 23.1678 64.1759 22.7956C64.2988 22.4592 64.4881 22.1512 64.7324 21.8897C64.9774 21.6353 65.2739 21.4363 65.602 21.3062C65.936 21.1764 66.2915 21.1114 66.6498 21.1145V21.1015ZM69.7844 26.6846V26.4233H69.8931V26.3666H69.6105V26.4233H69.7323V26.6976L69.7844 26.6846ZM70.3279 26.6846V26.3536H70.2409L70.1409 26.58L70.0409 26.3536H69.954V26.6846H70.0148V26.4363L70.1062 26.6497H70.167L70.2583 26.4363V26.6846H70.3279ZM66.628 22.1597C66.4353 22.156 66.2436 22.1885 66.0628 22.2556C65.9002 22.3152 65.752 22.4087 65.6281 22.5299C65.5054 22.6562 65.4067 22.8038 65.3368 22.9654C65.2583 23.137 65.2042 23.3188 65.1759 23.5054H67.9932C67.9623 23.1327 67.8095 22.7806 67.5584 22.5038C67.3061 22.2714 66.9702 22.1519 66.628 22.1728V22.1597Z" fill="#F79E1B"/>
<path d="M15.524 15.4791H14.1936V8.69408L11.7894 14.6647H10.3894L7.99386 8.75941V15.4791H6.65479V7.23517H8.69384L11.0894 13.1274L13.4806 7.23517H15.5196L15.524 15.4791ZM22.5237 15.4791H21.2933V14.8041C21.0968 15.0556 20.8474 15.2608 20.5629 15.4051C20.2392 15.561 19.8829 15.6372 19.5238 15.6272C18.7709 15.6352 18.0477 15.3328 17.5239 14.791C17.2639 14.5202 17.06 14.2005 16.9239 13.8503C16.6338 13.0814 16.6338 12.2328 16.9239 11.4638C17.0601 11.1138 17.264 10.7941 17.5239 10.5232C18.0477 9.98134 18.7709 9.679 19.5238 9.68702C19.8833 9.67748 20.2398 9.75518 20.5629 9.91348C20.8473 10.0598 21.0965 10.2664 21.2933 10.5188V9.83944H22.5237V15.4791ZM19.6673 10.8498C19.422 10.8456 19.1788 10.8946 18.9543 10.9935C18.7525 11.0845 18.5719 11.2165 18.4239 11.3811C18.2764 11.5493 18.1628 11.7445 18.0891 11.9559C17.9321 12.4101 17.9321 12.904 18.0891 13.3582C18.1635 13.5702 18.2787 13.7655 18.4282 13.9331C18.5761 14.0979 18.7568 14.2299 18.9586 14.3207C19.4093 14.5094 19.9166 14.5094 20.3673 14.3207C20.5696 14.2324 20.7516 14.1035 20.902 13.9418C21.0536 13.7759 21.1717 13.5822 21.2498 13.3713C21.4143 12.9064 21.4143 12.399 21.2498 11.9341C21.1717 11.7233 21.0536 11.5295 20.902 11.3637C20.7514 11.2022 20.5694 11.0732 20.3673 10.9848C20.1462 10.8905 19.9075 10.8445 19.6673 10.8498ZM28.1626 11.2505C28.0597 11.1912 27.9538 11.1374 27.8452 11.0893C27.7038 11.0277 27.5586 10.9754 27.4105 10.9325C27.2505 10.8841 27.0879 10.8448 26.9235 10.815C26.7514 10.7832 26.5768 10.7671 26.4018 10.767C26.1269 10.7513 25.8534 10.8164 25.6149 10.9543C25.4418 11.0554 25.3357 11.2414 25.3366 11.442C25.3335 11.5306 25.3594 11.6179 25.4105 11.6903C25.4623 11.7597 25.5292 11.8163 25.6062 11.8558C25.6997 11.9034 25.7991 11.9385 25.9018 11.9603C26.0149 11.9864 26.1366 12.0096 26.267 12.03L26.8496 12.1171C27.3675 12.1708 27.863 12.3567 28.2887 12.6571C28.6461 12.9228 28.8495 13.3482 28.8321 13.7937C28.8347 14.0523 28.775 14.3078 28.6582 14.5384C28.5361 14.7611 28.3652 14.9532 28.1583 15.1002C27.9155 15.2747 27.6429 15.4031 27.3539 15.4791C26.9995 15.5737 26.6338 15.6192 26.267 15.6141C26.1221 15.6141 25.954 15.6054 25.7627 15.588C25.5561 15.5683 25.3512 15.5334 25.1497 15.4834C24.9239 15.4268 24.703 15.3526 24.4888 15.2613C24.2616 15.1644 24.047 15.0401 23.8497 14.8912L24.4193 13.9679C24.5243 14.0493 24.6347 14.1235 24.7497 14.19C24.8786 14.2633 25.0139 14.3246 25.154 14.3729C25.3169 14.4289 25.4841 14.4712 25.654 14.4992C25.8595 14.5327 26.0675 14.5487 26.2757 14.5471C26.6052 14.5658 26.934 14.5014 27.2322 14.3599C27.4279 14.2695 27.5547 14.0749 27.5583 13.859C27.5553 13.6947 27.4661 13.5441 27.3235 13.4627C27.0958 13.3359 26.844 13.2587 26.5844 13.2363L25.9975 13.1579C25.4794 13.1158 24.9844 12.9253 24.5714 12.6092C24.2475 12.3351 24.0665 11.9276 24.0801 11.503C24.0766 11.2411 24.1331 10.9819 24.2454 10.7453C24.353 10.5208 24.5125 10.3252 24.7106 10.1748C24.9301 10.0118 25.1777 9.89079 25.441 9.81767C25.7565 9.72947 26.083 9.68695 26.4105 9.69137C26.8329 9.68896 27.2538 9.74166 27.6626 9.84815C28.0266 9.93866 28.3743 10.0856 28.693 10.2836L28.1626 11.2505ZM33.9972 10.9543H31.8233V13.4105C31.823 13.5766 31.851 13.7415 31.9059 13.8982C31.9459 14.0194 32.0111 14.1308 32.0972 14.2249C32.1754 14.3087 32.2722 14.3729 32.3798 14.4121C32.4927 14.4531 32.6119 14.4737 32.732 14.4731C32.9329 14.4715 33.1318 14.4331 33.3189 14.3599C33.5101 14.2885 33.6936 14.198 33.8667 14.0899L34.3537 15.0741C34.1142 15.2345 33.8575 15.3674 33.5885 15.4704C33.2812 15.5845 32.9554 15.6407 32.6276 15.6359C32.0798 15.6678 31.5428 15.4743 31.1407 15.1002C30.7454 14.6406 30.5512 14.0411 30.6016 13.4366V10.9587H29.4843V9.83944H30.6016V8.13229H31.8364V9.83944H34.0102L33.9972 10.9543ZM37.7796 9.68702C38.1499 9.68234 38.5171 9.75501 38.8578 9.90041C39.178 10.039 39.4643 10.2455 39.6969 10.5057C39.9378 10.7797 40.1238 11.0976 40.2447 11.442C40.3797 11.8296 40.4459 12.2379 40.4404 12.6484V12.8835V13.1056H36.2536C36.2841 13.3352 36.3579 13.5569 36.471 13.7589C36.5698 13.927 36.6997 14.0748 36.8536 14.1944C37.0027 14.3105 37.1723 14.3977 37.3535 14.4513C37.5412 14.5071 37.736 14.535 37.9318 14.5341C38.2287 14.5348 38.5233 14.4817 38.8013 14.3773C39.0827 14.2757 39.3456 14.1285 39.5795 13.9418L40.1926 14.8128C39.8739 15.0924 39.5009 15.303 39.097 15.4312C38.7008 15.5512 38.2891 15.6113 37.8753 15.6097C37.4709 15.6238 37.0678 15.5587 36.6884 15.4181C36.3455 15.2838 36.0345 15.0791 35.7753 14.8171C35.5145 14.5495 35.3117 14.2307 35.1797 13.8808C35.0338 13.4911 34.9615 13.0776 34.9667 12.6614C34.9615 12.2503 35.0308 11.8416 35.171 11.4551C35.2986 11.1058 35.4953 10.7859 35.7493 10.5145C35.9938 10.2542 36.29 10.048 36.6188 9.90912C36.9869 9.75826 37.3819 9.68417 37.7796 9.69137V9.68702ZM37.7579 10.7845C37.5577 10.7808 37.3586 10.8148 37.1709 10.8846C37.0077 10.9493 36.8597 11.0472 36.7362 11.1721C36.6098 11.2981 36.5068 11.4455 36.4318 11.6075C36.3456 11.7882 36.2856 11.9803 36.2536 12.178H39.1752C39.1362 11.7942 38.971 11.4342 38.7057 11.1546C38.4528 10.9078 38.1108 10.7743 37.7579 10.7845ZM44.7141 9.68702C44.8845 9.68594 45.0546 9.69905 45.2228 9.72621C45.3715 9.75211 45.5171 9.79296 45.6576 9.84815L45.3619 11.0675C45.2244 10.9977 45.0782 10.9464 44.9272 10.9151C44.7684 10.8816 44.6068 10.8641 44.4446 10.8629C44.2601 10.8611 44.077 10.8951 43.9055 10.963C43.7395 11.0266 43.5907 11.128 43.4707 11.2592C43.3467 11.3984 43.252 11.5613 43.1924 11.7382C43.1231 11.9443 43.0893 12.1608 43.0925 12.3784V15.4834H41.8621V9.82202H43.0794V10.4578C43.2517 10.2048 43.489 10.0032 43.7663 9.87428C44.0613 9.74713 44.38 9.68476 44.7011 9.69137L44.7141 9.68702ZM48.9183 9.68702C49.3236 9.68287 49.7257 9.75986 50.1009 9.91348C50.4583 10.0602 50.7746 10.2919 51.0226 10.5885L50.2357 11.429C50.0532 11.2512 49.8433 11.1042 49.6139 10.9935C49.3843 10.8904 49.1351 10.8384 48.8835 10.8411C48.6581 10.8389 48.4346 10.8834 48.227 10.9717C48.0264 11.0568 47.8458 11.1829 47.6966 11.3419C47.5444 11.5073 47.4262 11.7012 47.3488 11.9124C47.1793 12.3868 47.1793 12.9055 47.3488 13.38C47.4263 13.5912 47.5445 13.785 47.6966 13.9505C47.8459 14.1094 48.0265 14.2355 48.227 14.3207C48.4346 14.409 48.6581 14.4535 48.8835 14.4513C49.1449 14.4538 49.4035 14.3972 49.64 14.2858C49.8687 14.1741 50.0785 14.0271 50.2617 13.8503L51.0182 14.6996C50.7651 14.9943 50.4464 15.2255 50.0878 15.3746C49.7142 15.5283 49.3135 15.6053 48.9096 15.601C48.4929 15.6069 48.0791 15.5299 47.6923 15.3746C46.9845 15.092 46.4277 14.5248 46.1575 13.8111C45.875 13.0513 45.875 12.2149 46.1575 11.4551C46.4277 10.7415 46.9845 10.1743 47.6923 9.8917C48.0796 9.74582 48.4917 9.67775 48.9053 9.69137L48.9183 9.68702ZM57.5571 15.4791H56.3267V14.8041C56.1302 15.0556 55.8808 15.2608 55.5963 15.4051C55.2726 15.561 54.9163 15.6372 54.5572 15.6272C53.8043 15.6352 53.0811 15.3328 52.5573 14.791C52.2973 14.5202 52.0934 14.2005 51.9573 13.8503C51.6672 13.0814 51.6672 12.2328 51.9573 11.4638C52.0935 11.1138 52.2974 10.7941 52.5573 10.5232C53.0811 9.98134 53.8043 9.679 54.5572 9.68702C54.9167 9.67748 55.2732 9.75518 55.5963 9.91348C55.8807 10.0598 56.13 10.2664 56.3267 10.5188V9.83944H57.5571V15.4791ZM54.705 10.8498C54.4598 10.8456 54.2166 10.8946 53.992 10.9935C53.7903 11.0845 53.6097 11.2165 53.4616 11.3811C53.3142 11.5493 53.2005 11.7445 53.1268 11.9559C52.9698 12.4101 52.9698 12.904 53.1268 13.3582C53.2005 13.5696 53.3142 13.7648 53.4616 13.9331C53.6096 14.0978 53.7902 14.2298 53.992 14.3207C54.4428 14.5089 54.9499 14.5089 55.4007 14.3207C55.6029 14.2323 55.7849 14.1034 55.9354 13.9418C56.0876 13.7763 56.2058 13.5825 56.2832 13.3713C56.4484 12.9065 56.4484 12.3989 56.2832 11.9341C56.2058 11.723 56.0876 11.5291 55.9354 11.3637C55.7848 11.2022 55.6029 11.0732 55.4007 10.9848C55.1822 10.8918 54.9467 10.8458 54.7094 10.8498H54.705ZM62.2221 9.69137C62.3925 9.6903 62.5626 9.70341 62.7308 9.73057C62.8795 9.75647 63.0251 9.79732 63.1656 9.85251L62.8699 11.0719C62.7324 11.002 62.5862 10.9507 62.4352 10.9195C62.2764 10.886 62.1148 10.8685 61.9526 10.8672C61.7681 10.8654 61.585 10.8994 61.4135 10.9674C61.2476 11.0309 61.0987 11.1323 60.9787 11.2635C60.8547 11.4028 60.76 11.5657 60.7005 11.7425C60.6311 11.9487 60.5973 12.1652 60.6005 12.3827V15.4878H59.3701V9.82638H60.6005V10.4622C60.7732 10.2069 61.0122 10.0036 61.2917 9.87428C61.5867 9.74726 61.9054 9.68489 62.2265 9.69137H62.2221ZM66.2568 9.69137C66.6163 9.68184 66.9728 9.75953 67.2959 9.91783C67.5802 10.0643 67.8294 10.2708 68.0263 10.5232V7H69.2567V15.4791H68.0263V14.8041C67.8297 15.0556 67.5804 15.2608 67.2959 15.4051C66.9721 15.561 66.6159 15.6372 66.2568 15.6272C65.5038 15.6352 64.7807 15.3328 64.2568 14.791C63.9923 14.5212 63.7839 14.2015 63.6438 13.8503C63.3537 13.0814 63.3537 12.2328 63.6438 11.4638C63.78 11.1138 63.9839 10.7941 64.2438 10.5232C64.7676 9.98134 65.4908 9.679 66.2437 9.68702L66.2568 9.69137ZM70.6914 14.9608C70.7405 14.9597 70.7893 14.9686 70.8349 14.987C70.8786 15.0053 70.9185 15.0319 70.9522 15.0654C70.9853 15.0977 71.0119 15.1362 71.0305 15.1786C71.0687 15.2676 71.0687 15.3683 71.0305 15.4573C71.0118 15.4997 70.9852 15.5381 70.9522 15.5705C70.9184 15.6038 70.8785 15.6304 70.8349 15.6489C70.7897 15.6691 70.7408 15.6795 70.6914 15.6794C70.545 15.6815 70.4115 15.5958 70.3523 15.4617C70.3141 15.3727 70.3141 15.2719 70.3523 15.183C70.3894 15.0956 70.4598 15.0266 70.5479 14.9913C70.5946 14.9711 70.6449 14.9607 70.6957 14.9608H70.6914ZM70.6914 15.601C70.7287 15.6015 70.7658 15.5941 70.8001 15.5793C70.8326 15.5645 70.8621 15.5438 70.887 15.5183C70.9947 15.4082 70.9947 15.2321 70.887 15.122C70.8622 15.0963 70.8327 15.0756 70.8001 15.061C70.7642 15.0536 70.7272 15.0536 70.6914 15.061C70.6555 15.054 70.6186 15.054 70.5827 15.061C70.5044 15.0991 70.4483 15.1716 70.4313 15.2571C70.4142 15.3426 70.438 15.4312 70.4957 15.4965C70.5206 15.5222 70.5501 15.5428 70.5827 15.5575C70.6171 15.5786 70.6557 15.592 70.6957 15.5967L70.6914 15.601ZM70.6914 15.1655C70.7273 15.1635 70.7627 15.1743 70.7914 15.196C70.8147 15.2152 70.8275 15.2442 70.8261 15.2744C70.8277 15.3003 70.8182 15.3256 70.8001 15.3441C70.7786 15.3642 70.7511 15.3765 70.7218 15.3789L70.8305 15.5052H70.7435L70.6435 15.3789H70.6131V15.5052H70.5436V15.1699L70.6914 15.1655ZM70.6088 15.2265V15.3136H70.6914C70.7056 15.3177 70.7207 15.3177 70.7349 15.3136C70.7403 15.3026 70.7403 15.2897 70.7349 15.2788C70.7411 15.268 70.7411 15.2547 70.7349 15.2439C70.7206 15.24 70.7056 15.24 70.6914 15.2439L70.6088 15.2265ZM66.3828 10.8716C66.1376 10.8674 65.8944 10.9164 65.6698 11.0153C65.4681 11.1062 65.2875 11.2382 65.1394 11.4029C64.992 11.5711 64.8783 11.7663 64.8046 11.9777C64.6476 12.4319 64.6476 12.9258 64.8046 13.38C64.8783 13.5914 64.992 13.7866 65.1394 13.9549C65.2874 14.1196 65.4681 14.2516 65.6698 14.3424C66.1206 14.5307 66.6277 14.5307 67.0785 14.3424C67.2807 14.2541 67.4627 14.1252 67.6132 13.9636C67.7803 13.7906 67.9092 13.5843 67.9915 13.3582C68.1563 12.8934 68.1563 12.3859 67.9915 11.9211C67.914 11.7099 67.7958 11.5161 67.6437 11.3506C67.4931 11.1891 67.3111 11.0602 67.1089 10.9717C66.8868 10.882 66.6482 10.8405 66.4089 10.8498L66.3828 10.8716Z" fill="#EB001B"/>
</svg>
