<svg width="22" height="22" viewBox="0 0 22 22" fill="none" xmlns="http://www.w3.org/2000/svg">
<g clip-path="url(#clip0_43_3136)">
<path d="M9.68565 1.26477C5.27582 1.26477 1.70911 4.74973 1.70911 9.05847C1.70911 13.3672 5.27582 16.8522 9.68565 16.8522C11.2601 16.8522 12.7172 16.4009 13.9525 15.6344L19.715 21.2648L21.7091 19.3163L16.02 13.7719C17.0427 12.461 17.6622 10.8368 17.6622 9.05847C17.6622 4.74973 14.0955 1.26477 9.68565 1.26477ZM9.68565 3.09858C13.0636 3.09858 15.7854 5.75797 15.7854 9.05847C15.7854 12.359 13.0636 15.0184 9.68565 15.0184C6.30771 15.0184 3.58594 12.359 3.58594 9.05847C3.58594 5.75797 6.30771 3.09858 9.68565 3.09858Z" fill="#182A42"/>
</g>
<defs>
<clipPath id="clip0_43_3136">
<rect width="21.3641" height="21.0795" fill="white"/>
</clipPath>
</defs>
</svg>
