<svg width="26" height="26" viewBox="0 0 26 26" fill="none" xmlns="http://www.w3.org/2000/svg">
<path d="M1.89591 3.25008C1.78824 3.24856 1.68135 3.26845 1.58144 3.3086C1.48153 3.34875 1.39059 3.40835 1.31391 3.48395C1.23724 3.55955 1.17635 3.64963 1.1348 3.74897C1.09324 3.8483 1.07184 3.9549 1.07184 4.06258C1.07184 4.17026 1.09324 4.27686 1.1348 4.37619C1.17635 4.47553 1.23724 4.56561 1.31391 4.64121C1.39059 4.71681 1.48153 4.77642 1.58144 4.81656C1.68135 4.85671 1.78824 4.8766 1.89591 4.87508H3.38867C3.78296 4.87508 4.11164 5.1475 4.18636 5.53524L4.34822 6.38159L6.09488 15.555C6.41074 17.2101 7.86894 18.4167 9.55436 18.4167H19.6958C21.3812 18.4167 22.84 17.2106 23.1553 15.555L24.9019 6.38159C24.9243 6.26414 24.9205 6.14319 24.8908 6.02737C24.8611 5.91155 24.8062 5.80372 24.73 5.71156C24.6538 5.61941 24.5582 5.5452 24.4501 5.49424C24.3419 5.44328 24.2238 5.41682 24.1042 5.41675H5.8177L5.78279 5.23161C5.56443 4.08724 4.55385 3.25008 3.38867 3.25008H1.89591ZM6.12768 7.04175H23.1225L21.5588 15.2514C21.3877 16.1503 20.6115 16.7917 19.6958 16.7917H9.55436C8.63901 16.7917 7.86333 16.1503 7.69132 15.2514V15.2503L6.12768 7.04175ZM10.8334 19.5001C10.4024 19.5001 9.98911 19.6713 9.68436 19.976C9.37961 20.2808 9.20841 20.6941 9.20841 21.1251C9.20841 21.5561 9.37961 21.9694 9.68436 22.2741C9.98911 22.5789 10.4024 22.7501 10.8334 22.7501C11.2644 22.7501 11.6777 22.5789 11.9825 22.2741C12.2872 21.9694 12.4584 21.5561 12.4584 21.1251C12.4584 20.6941 12.2872 20.2808 11.9825 19.976C11.6777 19.6713 11.2644 19.5001 10.8334 19.5001ZM18.4167 19.5001C17.9858 19.5001 17.5724 19.6713 17.2677 19.976C16.9629 20.2808 16.7917 20.6941 16.7917 21.1251C16.7917 21.5561 16.9629 21.9694 17.2677 22.2741C17.5724 22.5789 17.9858 22.7501 18.4167 22.7501C18.8477 22.7501 19.261 22.5789 19.5658 22.2741C19.8705 21.9694 20.0417 21.5561 20.0417 21.1251C20.0417 20.6941 19.8705 20.2808 19.5658 19.976C19.261 19.6713 18.8477 19.5001 18.4167 19.5001Z" fill="#182A42"/>
</svg>
