<svg width="69" height="34" viewBox="0 0 69 34" fill="none" xmlns="http://www.w3.org/2000/svg">
<path fill-rule="evenodd" clip-rule="evenodd" d="M29.1906 17.7686L26.4068 25.268L26.1099 23.7443C25.4167 21.8758 23.9157 19.9156 22.1677 19.1212L24.7144 28.751L27.7249 28.7496L32.2019 17.7686H29.1906Z" fill="#1B548E"/>
<path fill-rule="evenodd" clip-rule="evenodd" d="M31.5769 28.7623L33.3565 17.7583H36.2005L34.4196 28.7623H31.5769Z" fill="#1B548E"/>
<path fill-rule="evenodd" clip-rule="evenodd" d="M44.7364 18.0294C44.1744 17.8076 43.2877 17.5664 42.1876 17.5664C39.3741 17.5664 37.3976 19.0603 37.3803 21.1972C37.3622 22.7799 38.7937 23.6627 39.8697 24.1885C40.9803 24.7266 41.3512 25.072 41.3477 25.5534C41.3369 26.2906 40.4592 26.6267 39.6435 26.6267C38.5067 26.6267 37.9008 26.4608 36.9688 26.0515L36.5994 25.876L36.2014 28.3387C36.8668 28.6452 38.0952 28.9109 39.372 28.9246C42.3577 28.9246 44.3003 27.4476 44.3234 25.1669C44.3354 23.9115 43.5755 22.9612 41.9331 22.1767C40.9417 21.6666 40.3286 21.3285 40.3376 20.8115C40.3385 20.3549 40.852 19.8656 41.9672 19.8656C42.8987 19.8501 43.5685 20.0635 44.0957 20.2886L44.3494 20.4147L44.7364 18.0294ZM52.0307 17.7696H49.8336C49.1523 17.7696 48.6417 17.9635 48.341 18.6828L44.1191 28.7655H47.1062C47.1062 28.7655 47.5946 27.4085 47.7051 27.111C48.0309 27.111 50.9321 27.1177 51.3463 27.1177C51.4342 27.5014 51.6926 28.7655 51.6926 28.7655H54.3337L52.0307 17.7696ZM48.5234 24.8603C48.7595 24.2288 49.6564 21.7846 49.6564 21.7846C49.6389 21.8144 49.8897 21.1481 50.0346 20.7362L50.224 21.6847C50.224 21.6847 50.7705 24.3106 50.8845 24.8603H48.5234Z" fill="#1B548E"/>
<path fill-rule="evenodd" clip-rule="evenodd" d="M23.8245 17.7632H19.2375L19.2107 17.9527C22.777 18.8639 25.1303 21.1014 26.1099 23.7474L25.113 18.6901C24.9418 17.9944 24.4426 17.7877 23.8245 17.7632Z" fill="#E89F3E"/>
<path fill-rule="evenodd" clip-rule="evenodd" d="M10.6334 15.1042H8.81964L6.72754 5.683L8.73194 5.34814L10.1635 12.7212L13.8095 5.44553H15.7349L10.6334 15.1042Z" fill="#1B548E"/>
<path fill-rule="evenodd" clip-rule="evenodd" d="M20.0652 12.0242H15.7402C15.6221 13.3342 16.2315 13.9058 17.264 13.9058C18.1291 13.9058 18.8901 13.585 19.709 13.0694L19.7026 14.3794C18.8994 14.8812 17.9712 15.2018 16.8829 15.2018C14.9996 15.2018 13.7558 14.1286 14.1296 11.7033C14.4665 9.51539 15.9819 8.19166 17.7398 8.19166C19.7628 8.19166 20.4355 9.7107 20.1415 11.6201C20.1202 11.7594 20.0801 11.9266 20.0652 12.0242ZM17.52 9.34839C16.8502 9.34839 16.2244 9.8777 15.9293 10.979H18.6078C18.6572 9.93347 18.329 9.34839 17.52 9.34839ZM22.8843 11.202L22.2896 15.0625H20.6156L21.6525 8.33063H23.0757L23.0766 9.68268C23.6433 8.90228 24.414 8.24742 25.4687 8.19166L25.4784 9.84997C24.4213 9.91974 23.4703 10.4771 22.8843 11.202ZM25.4564 15.0625L26.4937 8.33063H28.1677L27.1308 15.0625H25.4564ZM27.5186 7.20193C26.9607 7.20193 26.5743 6.81158 26.6602 6.25424C26.7482 5.68288 27.257 5.27853 27.8149 5.27853C28.3591 5.27853 28.7431 5.68288 28.6552 6.25424C28.5692 6.81158 28.0628 7.20193 27.5186 7.20193ZM32.8043 6.49102C32.2321 6.49102 31.8866 6.74181 31.7943 7.34148L31.6417 8.33063H32.9253L32.9241 9.6964H31.4313L30.6045 15.0625H28.9445L29.7713 9.6964H28.7946L29.005 8.33063H29.9814L30.1597 7.1739C30.3894 5.68288 31.424 5.12525 32.8052 5.12525C33.0983 5.12525 33.3172 5.15328 33.4806 5.18101L33.4931 6.54678C33.3298 6.51905 33.0831 6.49102 32.8043 6.49102ZM32.8224 15.0625L33.8596 8.33063H35.5336L34.4967 15.0625H32.8224ZM34.8845 7.20193C34.3266 7.20193 33.9403 6.81158 34.0262 6.25424C34.1142 5.68288 34.623 5.27853 35.1809 5.27853C35.7251 5.27853 36.1094 5.68288 36.0214 6.25424C35.9355 6.81158 35.4287 7.20193 34.8845 7.20193ZM42.0246 12.0242H37.6995C37.5815 13.3342 38.1908 13.9058 39.2233 13.9058C40.0884 13.9058 40.8492 13.585 41.6683 13.0694L41.6616 14.3794C40.8588 14.8812 39.9303 15.2018 38.842 15.2018C36.9587 15.2018 35.7151 14.1286 36.0886 11.7033C36.4259 9.51539 37.9412 8.19166 39.6991 8.19166C41.7221 8.19166 42.3949 9.7107 42.1009 11.6201C42.0792 11.7594 42.0395 11.9266 42.0246 12.0242ZM39.4791 9.34839C38.8092 9.34839 38.1835 9.8777 37.8886 10.979H40.5671C40.6165 9.93347 40.288 9.34839 39.4791 9.34839ZM46.9836 15.0625L46.9877 14.1286C46.4251 14.7002 45.6924 15.2018 44.7575 15.2018C43.3482 15.2018 42.3797 14.1566 42.7295 11.8846C43.1159 9.37612 44.6689 8.26114 46.2313 8.26114C46.8734 8.26114 47.3726 8.37267 47.7554 8.51193L48.2557 5.26451L49.9707 5L48.4206 15.0625H46.9836ZM47.5429 9.89172C47.1545 9.6964 46.8485 9.59889 46.2766 9.59889C45.3975 9.59889 44.6464 10.3098 44.4187 11.7874C44.2171 13.0971 44.6806 13.7105 45.42 13.7105C46.0337 13.7105 46.5639 13.3485 47.0961 12.7908L47.5429 9.89172ZM53.549 15.1259C52.7564 15.1259 52.1106 14.9989 51.5091 14.7881L52.6103 7.64103L53.9091 7.44017L53.4327 10.5334C53.8124 10.1956 54.3399 9.85785 54.9846 9.85785C56.0624 9.85785 56.7843 10.6604 56.5207 12.3704C56.2313 14.2494 55.0711 15.1259 53.549 15.1259ZM54.4845 10.9766C54.0617 10.9766 53.6373 11.2619 53.2618 11.6423L52.9055 13.954C53.1554 14.0489 53.3284 14.0912 53.6876 14.0912C54.4907 14.0912 55.0518 13.6057 55.2307 12.4443C55.3821 11.4624 55.0553 10.9766 54.4845 10.9766ZM59.5084 15.337C58.8605 16.5933 58.2193 16.9839 57.2364 16.9839C57.0143 16.9839 56.891 16.9626 56.7796 16.9311L56.7714 15.8859C56.9342 15.9282 57.1087 15.9597 57.3518 15.9597C57.7218 15.9597 58.0436 15.791 58.2593 15.4214L58.4273 15.0836L57.3521 10.0584L58.6994 9.88967L59.3234 13.521L61.0129 9.96354H62.2705L59.5084 15.337Z" fill="#1B548E"/>
</svg>
